# xmcd
#
# Track frame offsets:
#	150
#	26974
#	40262
#	62886
#	87754
#	115509
#	129219
#	152843
#	161118
#	190738
#	207348
#
# Disc length: 3173 seconds
#
# Revision: 3
# Processed by: cddbd v1.5.1PL0 Copyright (c) Steve Scherf et al.
# Submitted via: EasyCDDAExtractor 5.1.0
#
DISCID=8f0c630b
DTITLE=Black Sabbath - Musiek Centrum Vredenburg Utrecht 19-04-94 Disc 2
DYEAR=1994
DGENRE=Hard Rock
TTITLE0=Neon Knights
TTITLE1=Immaculate Deception
TTITLE2=The Wizard
TTITLE3=Cross Of Thorns
TTITLE4=Symptom Of The Universe
TTITLE5=Drum Solo
TTITLE6=Headless Cross
TTITLE7=Guitar Solo
TTITLE8=Paranoid
TTITLE9=Iron Man
TTITLE10=Sabbath Bloody Sabbath
EXTD=
EXTT0=
EXTT1=
EXTT2=
EXTT3=
EXTT4=
EXTT5=
EXTT6=
EXTT7=
EXTT8=
EXTT9=
EXTT10=
PLAYORDER=
